<svg id="Layer_1" xmlns="http://www.w3.org/2000/svg" width="60" height="60">
  <path fill="#FFF" d="M34.07,6.96c2.16,5.9,5.65,10.51,10.49,13.83v2.52c-3.39-1.14-6.59-3.05-9.6-5.72v15.93h9.6v3.52h-9.6 v6.26c0,2.68-0.95,4.97-2.86,6.88c-1.91,1.91-4.21,2.86-6.92,2.86c-2.68,0-4.97-0.95-6.88-2.86c-1.91-1.91-2.86-4.2-2.86-6.88 s0.95-4.98,2.86-6.9c1.91-1.92,4.2-2.88,6.88-2.88h6.29V17.59c-3.01,2.68-6.22,4.59-9.64,5.72v-2.52 c4.84-3.32,8.33-7.93,10.49-13.83H34.07z M31.48,37.04h-6.29c-1.68,0-3.15,0.62-4.39,1.85c-1.25,1.23-1.87,2.7-1.87,4.41 c0,1.69,0.62,3.15,1.87,4.39c1.24,1.25,2.71,1.87,4.39,1.87c1.73,0,3.21-0.62,4.44-1.85c1.23-1.23,1.85-2.7,1.85-4.41V37.04z"/>
</svg>
