<?xml version="1.0" encoding="utf-8"?>
<svg xmlns="http://www.w3.org/2000/svg" width="233.33" height="234">
  <g fill="#FFF">
    <path d="M173.92 81.79l-5.77 7.2v7.94c0 1.22.08 2.12.25 2.71.14.57.44 1.09.9 1.55.8.76 1.97 1.25 3.53 1.49v.65h-14.21v-.65c1.72-.25 2.97-.83 3.74-1.72.34-.38.58-.86.74-1.45.13-.57.19-1.43.19-2.58V89.9l-6.4-9.28-.23-.31c-1.23-1.83-2.25-3.09-3.04-3.78-.81-.69-1.71-1.08-2.69-1.2v-.65h13.29v.65l-.44.02c-1.12.07-1.87.23-2.25.48-.41.28-.61.74-.61 1.39 0 .62.29 1.36.88 2.23l6.05 8.65 4.87-5.98c1.06-1.32 1.6-2.52 1.6-3.61 0-.98-.36-1.74-1.07-2.29-.74-.53-1.78-.83-3.11-.88v-.65h11.25v.65c-.73.2-1.39.47-2 .82-.64.39-1.25.86-1.83 1.41-.54.52-1.21 1.25-1.99 2.2l-1.32 1.66-.33.36zm-10.99 19.86l-.82.61h6.13l-.82-.61c-.48-.35-.78-.63-.9-.84-.14-.2-.21-.51-.21-.94v-.46c-.01-.04-.02-.12-.02-.23V88.99l-6.21-8.86c-.81-1.19-1.22-2.15-1.22-2.88 0-.39.1-.74.31-1.05.2-.28.53-.56.99-.84h-6.95c.6.36 1.2.86 1.79 1.49.54.63 1.34 1.7 2.39 3.21l.34.48 6.34 9.2v9.43c0 .31-.01.54-.02.69 0 .43-.06.75-.19.94-.11.2-.42.48-.93.85zm12.08-23.22c.99-1.2 2.05-2.22 3.17-3.04h-5.14c.7.34 1.21.73 1.53 1.2.29.46.44 1.07.44 1.84zM122.14 89.03c0-2.02.39-3.95 1.18-5.82.77-1.83 1.86-3.46 3.28-4.87 1.37-1.37 2.98-2.45 4.83-3.23 1.83-.76 3.76-1.13 5.77-1.13 2.72 0 5.23.67 7.54 2.02 2.3 1.37 4.12 3.21 5.48 5.5 1.34 2.31 2.02 4.82 2.02 7.54 0 2-.38 3.92-1.13 5.75-.78 1.85-1.87 3.46-3.25 4.85s-2.99 2.47-4.81 3.25c-1.82.78-3.75 1.18-5.77 1.18-2.76 0-5.29-.67-7.6-2.02a14.831 14.831 0 0 1-5.5-5.48c-1.37-2.29-2.04-4.81-2.04-7.54zm8.71 12.92c-1.23-.92-2.26-2.02-3.09-3.28-.84-1.27-1.46-2.72-1.85-4.35-.42-1.67-.63-3.48-.63-5.44 0-2.93.45-5.41 1.34-7.45.9-2.06 2.3-3.81 4.22-5.25-1.67.9-3.09 1.99-4.26 3.28-1.2 1.3-2.11 2.76-2.71 4.37-.63 1.61-.95 3.34-.95 5.19 0 1.82.31 3.54.95 5.17.6 1.62 1.5 3.1 2.71 4.43 1.18 1.3 2.61 2.42 4.27 3.33zm-3.42-13.06c0 2.06.23 3.96.69 5.71.45 1.74 1.11 3.23 2 4.49.88 1.27 1.92 2.23 3.11 2.86 1.2.66 2.54.99 4.01.99 2.41 0 4.5-.95 6.28-2.86 1.08-1.16 1.92-2.71 2.54-4.64.59-1.92.88-4.11.88-6.57 0-2.13-.22-4.07-.67-5.84-.46-1.74-1.11-3.21-1.95-4.43-.88-1.25-1.9-2.18-3.07-2.81-1.2-.66-2.55-.99-4.05-.99-1.47 0-2.81.33-4.01.99-1.2.67-2.23 1.62-3.09 2.86-.84 1.22-1.5 2.72-1.97 4.49-.47 1.76-.7 3.68-.7 5.75zm14.95 13.08c5.12-2.97 7.68-7.28 7.68-12.93 0-1.85-.28-3.59-.84-5.23a14.8 14.8 0 0 0-2.41-4.43 12.554 12.554 0 0 0-3.67-3.09c3.07 2.69 4.6 6.87 4.6 12.56 0 1.67-.15 3.25-.44 4.77-.31 1.53-.73 2.86-1.26 3.99-.32.67-.61 1.18-.86 1.53-.35.49-.73.94-1.13 1.34-.43.45-.99.94-1.67 1.49zM99.97 103.33H86.89v-.65c1.5-.25 2.6-.83 3.3-1.74.53-.69.8-2.02.8-4.01V81.08c0-1.3-.07-2.23-.21-2.77-.15-.6-.41-1.09-.78-1.47-.69-.77-1.72-1.27-3.11-1.51v-.65h13.08v.65c-1.51.25-2.62.83-3.32 1.74-.28.36-.48.85-.61 1.45s-.19 1.46-.19 2.56v7.01h14.76v-7.01c0-1.3-.07-2.23-.21-2.77-.15-.6-.41-1.09-.78-1.47-.69-.77-1.72-1.27-3.11-1.51v-.65h13.08v.65c-1.51.25-2.62.83-3.32 1.74-.28.36-.48.85-.61 1.45s-.19 1.46-.19 2.56v15.85c0 1.15.08 2.04.23 2.69.15.63.41 1.15.78 1.55.69.77 1.72 1.27 3.11 1.51v.65h-13.08v-.65c1.5-.25 2.6-.83 3.29-1.74.53-.69.8-2.02.8-4.01v-7.87H95.85v7.87c0 1.15.08 2.04.23 2.69.15.63.41 1.15.78 1.55.69.77 1.72 1.27 3.11 1.51v.65zm-9.33-1.68l-.82.61h6.13l-.82-.61c-.48-.35-.78-.63-.9-.84-.14-.2-.21-.51-.21-.94v-.46c-.01-.05-.02-.12-.02-.23V78.83c0-.11.01-.2.02-.25v-.44c0-.43.07-.75.21-.94.13-.21.43-.49.9-.84l1.2-.88h-6.89l1.2.88c.46.35.77.63.92.84.13.21.19.52.19.94.01.15.02.39.02.69V99.18c0 .31-.01.54-.02.69 0 .43-.06.75-.19.94-.1.19-.41.47-.92.84zm19.64 0l-.82.61h6.13l-.82-.61c-.47-.35-.78-.63-.9-.84-.14-.2-.21-.51-.21-.94 0-.42-.01-.65-.02-.69V78.83c.01-.04.02-.27.02-.69 0-.43.07-.75.21-.94.13-.21.43-.49.9-.84l1.2-.88h-6.89l1.2.88c.46.35.77.63.92.84.13.21.19.52.19.94.01.15.02.39.02.69V99.18c0 .31-.01.54-.02.69 0 .43-.06.75-.19.94-.11.19-.42.47-.92.84zM75.23 98.04l-2.33-5.31H62.09l-1.18 2.69c-.56 1.3-.84 2.39-.84 3.25 0 .71.17 1.34.5 1.87.31.52.8.95 1.47 1.3.64.35 1.5.63 2.56.84v.65H53.7v-.63c1.3-.43 2.44-1.22 3.4-2.35.92-1.09 1.92-2.83 2.98-5.23l9.28-21h.55l10.1 22.7c.06.04.08.08.08.1.04.11.07.18.08.21.01.04.05.12.1.23l.92 1.91c.5 1.02 1.08 1.79 1.72 2.31.64.52 1.45.88 2.41 1.09v.65h-13.4v-.65c1.16-.08 1.97-.22 2.44-.4 1.01-.38 1.51-1.04 1.51-1.97.03-.44-.19-1.19-.64-2.26zm-18.96 4.22h4.26c-.48-.56-.81-1.08-1.01-1.55-.2-.46-.29-.95-.29-1.47 0-.28.01-.47.02-.57-.45.87-.88 1.54-1.28 2.02-.42.52-.98 1.04-1.7 1.57zm6.2-10.41H72.5l-5.06-11.4-4.97 11.4zm6.61-15.06l-1.2 2.75 8.08 18.2.21.46c.43.92.65 1.61.65 2.06 0 .6-.34 1.27-1.03 1.99h5.54c-.64-.6-1.19-1.28-1.64-2.04-.5-.81-1.04-1.87-1.62-3.17l-8.99-20.25z"/>
  </g>
  <g fill="#FFF">
    <path d="M168.67 120.05c0 .83-.26 1.55-.77 2.15-.51.61-1.29 1.16-2.33 1.65-.78.37-1.7.67-2.77.91-.56.12-1.5.28-2.82.48-1.32.2-2.28.39-2.88.54-1 .27-1.98.76-2.91 1.46-.78.6-1.41 1.24-1.89 1.93.3 1.76 1.16 3.34 2.57 4.74 1.57 1.56 3.33 2.34 5.29 2.34 1.4 0 2.59-.27 3.55-.8.96-.54 1.45-1.24 1.45-2.12 0-.28-.03-.53-.1-.74-.06-.21-.12-.39-.17-.55-.03-.06-.03-.11 0-.15.03-.04.09-.06.18-.06.26.04.52.18.77.41.33.32.5.71.5 1.17 0 1.24-.71 2.25-2.14 3.04-1.3.72-2.83 1.08-4.59 1.08-2.84 0-5.15-.99-6.92-2.96-1.81-2-2.71-4.61-2.71-7.84 0-2.86.93-5.33 2.81-7.41 1.92-2.13 4.26-3.19 7.02-3.19 1.22 0 2.26.23 3.13.7.97.53 1.46 1.23 1.46 2.11 0 .45-.14.83-.42 1.16-.28.32-.67.52-1.16.6-.04.01-.09.01-.15.01h-.16c-.2 0-.37-.02-.51-.05s-.27-.09-.38-.17c-.09-.04-.13-.09-.13-.15s.04-.12.13-.18c.19-.14.33-.25.39-.34.17-.2.27-.46.31-.78.01-.04.01-.07.01-.1v-.1c0-.54-.34-.96-1.01-1.27-.57-.26-1.21-.4-1.93-.4-1.12 0-2.15.23-3.09.7s-1.77 1.14-2.49 2.03c-.67.83-1.16 1.78-1.46 2.85-.3 1.07-.45 2.24-.45 3.52 0 .25.01.53.02.83.01.3.04.63.08 1 .36-.51.92-1.09 1.67-1.76 1-.89 1.95-1.5 2.84-1.84.77-.29 1.57-.52 2.38-.67.46-.09 1.24-.2 2.34-.34 1.1-.14 1.98-.27 2.65-.4 1.07-.2 1.89-.45 2.46-.75.88-.46 1.32-1.06 1.32-1.8 0-.51-.15-.85-.44-1.02-.08-.06-.21-.09-.41-.09-.12 0-.21.02-.26.06-.11.09-.19.13-.25.13-.05 0-.07-.05-.07-.15 0-.01.02-.09.05-.25.03-.16.15-.32.36-.48.21-.17.44-.25.7-.25.41 0 .73.15.97.46.24.35.36.7.36 1.1zM147.65 136.68c.12.09.18.17.18.25 0 .11-.12.16-.35.16-.2 0-.36 0-.5-.01-.67-.05-1.11-.07-1.32-.07-.38 0-.69.01-.92.03-.23.02-.49.04-.78.06-.21 0-.32-.05-.32-.16 0-.07.04-.14.12-.22.24-.21.42-.38.54-.48.22-.2.33-.4.31-.57l-2.23-16.54-4.71 5.3c.54.57.98 1.21 1.33 1.92.4.81.6 1.57.6 2.27 0 .95-.25 1.77-.76 2.47-.55.75-1.25 1.13-2.11 1.13-.84 0-1.53-.37-2.06-1.1-.5-.68-.75-1.49-.75-2.42 0-.66.17-1.34.51-2.03.26-.54.59-1.01.98-1.42-1.08-1.29-1.94-2.39-2.57-3.31-.64-.92-1.03-1.62-1.19-2.1l-2.24 15.84c-.02.18.1.37.37.57.21.17.43.33.66.48.08.08.12.15.12.22 0 .11-.09.16-.26.16-.09.01-.36 0-.81-.04-.45-.03-.78-.05-.97-.05-.41 0-.74.01-.99.03-.25.02-.53.04-.86.06-.21 0-.32-.05-.32-.16 0-.08.06-.17.18-.27.18-.14.38-.29.57-.43.24-.21.38-.4.4-.57l2.49-17.62c.02-.18-.11-.38-.38-.6-.21-.16-.43-.32-.64-.48-.06-.06-.09-.12-.09-.18 0-.12.09-.18.26-.18.07 0 .31.01.71.04.41.03.79.04 1.15.04.4 0 .72-.01.96-.02s.52-.04.84-.07c.22 0 .33.06.33.17 0 .06-.03.13-.1.2-.24.2-.43.36-.57.47-.26.2-.39.38-.39.56 0 .03.01.07.03.13.15.41.63 1.09 1.45 2.03.64.72 1.38 1.52 2.23 2.39.75.76 1.14 1.14 1.16 1.14l4.8-5.36c.16-.16.23-.31.23-.45 0-.11-.05-.22-.15-.34-.05-.06-.14-.14-.28-.25-.14-.11-.28-.22-.42-.34-.08-.08-.12-.15-.12-.21 0-.1.11-.15.32-.15.19 0 .36.01.5.01.67.05 1.11.07 1.32.07.29 0 .63-.01 1.02-.04s.63-.04.7-.04c.27 0 .41.06.41.19 0 .07-.04.13-.12.19-.21.14-.36.24-.47.32-.38.27-.56.52-.53.73l2.37 17.62c.02.17.17.36.45.57.23.16.45.31.68.46zm-9.6-7.84c0-.52-.21-1.06-.63-1.64-.3-.41-.69-.8-1.16-1.17-.39.35-.69.71-.91 1.08-.29.5-.44 1.01-.44 1.52 0 .64.13 1.19.38 1.64.3.53.72.79 1.26.79.48 0 .85-.24 1.13-.72.25-.42.37-.92.37-1.5zM117 130.53c0 2.05-.86 3.75-2.58 5.11-1.62 1.28-3.54 1.92-5.77 1.92-2.03 0-3.74-.49-5.14-1.46-1.55-1.09-2.33-2.58-2.33-4.45 0-1.32.54-2.45 1.62-3.39s2.37-1.41 3.89-1.41c1.47 0 2.67.28 3.59.85 1.02.63 1.54 1.53 1.54 2.69 0 .85-.34 1.55-1.03 2.11-.69.56-1.49.84-2.39.84-.83 0-1.53-.16-2.09-.47-.67-.37-1.01-.9-1.01-1.58 0-.41.17-.75.51-1.02.26-.21.5-.34.7-.37s.32-.04.34-.04c.08 0 .12.03.12.09l-.06.18a2.2 2.2 0 0 0-.15.82c0 .3.15.56.46.78.31.22.64.33 1 .33.6 0 1.11-.19 1.51-.56.4-.37.6-.83.6-1.38 0-.82-.4-1.46-1.21-1.92-.7-.4-1.55-.6-2.53-.6-1.26 0-2.35.37-3.26 1.11-.97.78-1.45 1.76-1.45 2.93 0 1.52.73 2.74 2.18 3.66 1.3.82 2.84 1.23 4.64 1.23 1.82 0 3.39-.57 4.7-1.7 1.36-1.17 2.03-2.62 2.03-4.36 0-.95-.22-1.78-.67-2.49-.39-.62-.99-1.22-1.8-1.8-.56-.4-1.4-.89-2.53-1.48-1.44-.68-2.88-1.37-4.32-2.06-1.45-.85-2.18-1.85-2.18-3 0-1.14.58-2.03 1.74-2.66 1-.55 2.23-.82 3.67-.82 1.1 0 1.98.12 2.62.37.89.33 1.33.88 1.33 1.65 0 .31-.13.59-.37.84-.25.25-.47.38-.66.4-.19.02-.33.03-.42.03-.21 0-.4-.03-.54-.1-.11-.08-.16-.13-.16-.15 0-.05.03-.11.1-.18a1.257 1.257 0 0 0 .38-.91c0-.48-.26-.84-.79-1.08-.42-.2-.95-.29-1.58-.29-1.02 0-1.88.16-2.56.48-.83.39-1.24.95-1.24 1.68 0 .54.3 1.03.89 1.48.42.31 1.15.7 2.2 1.16 1.55.67 2.45 1.07 2.71 1.2 1.31.63 2.3 1.21 2.99 1.74.92.7 1.6 1.5 2.03 2.39.48 1.01.73 2.23.73 3.66zM99.41 118.12c0 .99-.35 1.84-1.06 2.55s-1.53 1.08-2.48 1.08c-.32 0-.57-.05-.73-.15-.12-.05-.18-.11-.18-.18 0-.08.09-.12.26-.12l.48-.06c.25-.05.49-.13.72-.23.41-.19.72-.41.94-.67.27-.33.41-.73.41-1.2 0-.24-.06-.47-.19-.67-.13-.2-.3-.3-.51-.3s-.39.05-.51.15a.95.95 0 0 0-.2.27c-.05.11-.12.17-.18.17s-.14-.04-.22-.12c-.25-.22-.38-.6-.38-1.11 0-.43.18-.77.53-1.01s.78-.37 1.28-.37c.71 0 1.25.24 1.61.72.27.37.41.78.41 1.25zM95.23 115.75c0 .73-.51 1.39-1.52 1.98a6.55 6.55 0 0 1-3.34.89c-.44 0-.83-.02-1.16-.07-.34-.04-.77-.12-1.3-.23v17.34c0 .19.15.39.44.61.39.3.6.46.61.49.02.02.03.05.04.09.01.03.01.05.01.07 0 .11-.09.16-.26.16-.1.01-.39 0-.87-.04s-.82-.05-1-.05c-.31 0-.78.02-1.4.07-.23.02-.4.02-.5.01-.17 0-.25-.06-.25-.18 0-.05.01-.09.04-.12.03-.04.24-.21.63-.51.3-.23.45-.44.45-.63v-17.62c-.68-.11-1.23-.19-1.64-.25-.76-.11-1.5-.16-2.22-.16-.82 0-1.41.11-1.79.32-.37.21-.56.57-.56 1.05 0 .17.06.32.18.45.12.14.23.21.35.23s.23.03.34.03c.17 0 .29-.01.38-.04s.16-.07.22-.12c.08-.05.14-.05.18 0 .04.05.05.12.03.21-.06.26-.18.5-.38.7-.26.27-.6.41-1.02.41-.39 0-.7-.14-.95-.42-.24-.28-.36-.64-.36-1.07 0-.93.63-1.7 1.89-2.32 1.26-.62 2.68-.93 4.25-.93.85 0 1.65.09 2.41.26.76.18 1.54.35 2.33.53.79.18 1.62.26 2.48.26.69 0 1.23-.09 1.6-.28.38-.19.56-.46.56-.83 0-.24-.08-.4-.23-.46-.15-.06-.35-.1-.59-.1-.15 0-.22-.03-.22-.09 0-.04.01-.09.04-.15.07-.17.18-.31.34-.42.2-.15.4-.22.63-.22.36 0 .64.1.83.29.2.22.3.5.3.86zM76.37 136.77c.02.02.03.05.04.09.01.03.01.05.01.07 0 .11-.09.16-.26.16-.1.01-.39 0-.87-.04s-.82-.05-1-.05c-.31 0-.78.03-1.4.09-.23.02-.4.02-.5.01-.17 0-.25-.06-.25-.18 0-.05.01-.09.04-.12.03-.04.24-.21.63-.52.3-.23.45-.44.45-.63v-17.62c0-.19-.15-.4-.44-.63-.21-.17-.43-.34-.64-.51-.03-.04-.04-.1-.02-.18.01-.08.09-.12.23-.12.1-.01.39 0 .88.04.49.03.83.05 1.02.05.39 0 .79-.01 1.19-.04s.63-.04.68-.04c.18 0 .26.05.26.16 0 .06-.02.11-.06.16-.02.03-.22.19-.6.48-.3.23-.45.44-.45.63v17.63c0 .19.15.39.44.61.4.31.6.48.62.5z"/>
  </g>
  <g opacity=".8" fill="#FFF">
    <path opacity=".86" d="M116.83 9.15C57.29 9.15 8.99 57.43 8.99 116.98s48.29 107.84 107.83 107.84c59.56 0 107.84-48.29 107.84-107.84.01-59.55-48.28-107.83-107.83-107.83zm0 214.85C57.73 224 9.82 176.09 9.82 116.98c0-59.1 47.92-107.02 107.01-107.02 59.1 0 107.02 47.92 107.02 107.02 0 59.11-47.92 107.02-107.02 107.02z"/>
    <path opacity=".86" d="M116.83 4.69C54.82 4.69 4.55 54.98 4.55 116.98c0 62.01 50.27 112.29 112.28 112.29 62.02 0 112.3-50.28 112.3-112.29 0-62-50.28-112.29-112.3-112.29zm0 221.44c-60.27 0-109.15-48.86-109.15-109.15C7.68 56.7 56.55 7.84 116.83 7.84c60.29 0 109.16 48.86 109.16 109.15 0 60.28-48.88 109.14-109.16 109.14z"/>
    <path d="M201.77 53.55C166.73 6.65 100.31-2.98 53.41 32.05 6.5 67.09-3.13 133.51 31.9 180.42c35.04 46.92 101.47 56.54 148.38 21.5 46.9-35.03 56.52-101.46 21.49-148.37zm-54.31 150.53c-5.17-.88-12.81 1-16.96 4.21l-13.74 10.6c-4.17 3.2-10.56 2.76-14.23-1l-12.12-12.44c-3.66-3.76-10.93-6.71-16.19-6.56l-17.36.5c-5.24.15-10.15-3.99-10.91-9.18l-2.49-17.19c-.75-5.19-4.91-11.87-9.23-14.83l-14.35-9.81c-4.33-2.95-5.87-9.19-3.43-13.83l8.09-15.36c2.45-4.66 3-12.5 1.24-17.43l-5.85-16.35c-1.75-4.93.65-10.89 5.36-13.21l15.57-7.68c4.71-2.31 9.77-8.34 11.24-13.37L57 34.49c1.48-5.04 6.93-8.42 12.1-7.54l17.11 2.95c5.18.89 12.81-1 16.97-4.21l13.75-10.6c4.14-3.21 10.54-2.76 14.21 1l12.12 12.44c3.65 3.77 10.94 6.72 16.2 6.57l17.35-.5c5.24-.15 10.15 3.98 10.91 9.17l2.49 17.19c.75 5.19 4.91 11.86 9.26 14.83l14.32 9.8c4.33 2.95 5.88 9.19 3.43 13.82l-8.08 15.39c-2.45 4.64-3 12.48-1.24 17.41l5.85 16.37c1.76 4.94-.64 10.88-5.36 13.19l-15.56 7.69c-4.71 2.32-9.76 8.34-11.25 13.37l-4.9 16.67c-1.48 5.02-6.92 8.42-12.09 7.54l-17.13-2.96z"/>
  </g>
  <g fill="#FFF">
    <path d="M113.16 160.25c0 1.09-.82 1.96-1.85 1.96-1.03 0-1.86-.87-1.86-1.96s.83-1.96 1.86-1.96c1.03 0 1.85.88 1.85 1.96z"/>
    <path d="M121.12 188.11c.27-.7 1.15-1.23 2.66-2.12 1.51-.88 3.8-1.24 5.48-2.75 1.68-1.51 3.46-4.42 3.46-4.42.53-1.52 1.58.97 1.58.97s.44-1.17 1.15-3.11c.69-1.91.98-5.84-.26-8.63-1.07 4.74-3.71 6.5-5.67 7.57 1.11.31 1.71.89 1.6 1.68-1.42 2.57-5.05 3.82-6.91 3.19-1.86-.61-1.85-2.66-1.59-8.41.23-5.24.61-10.36.61-10.36H129s.96-1.02 0-2.84h-5.75s-.62-.17-.45-1.42h-3.36c.18 1.25-.44 1.42-.44 1.42h-5.76c-.96 1.82 0 2.84 0 2.84H119s.38 5.13.62 10.36c.25 5.75.26 7.79-1.59 8.41-1.86.63-5.49-.62-6.91-3.19-.11-.79.48-1.36 1.59-1.68-1.95-1.06-4.6-2.83-5.67-7.57-1.23 2.79-.95 6.72-.26 8.63.7 1.94 1.15 3.11 1.15 3.11s1.06-2.49 1.59-.97c0 0 1.77 2.91 3.46 4.42 1.68 1.51 3.98 1.86 5.48 2.75 1.5.89 2.39 1.42 2.66 2.12z"/>
    <path d="M129.07 160.25c0 1.09.83 1.96 1.86 1.96 1.02 0 1.86-.87 1.86-1.96s-.84-1.96-1.86-1.96c-1.04 0-1.86.88-1.86 1.96zM121.2 149.67c-2.12 0-3.84 1.91-3.84 4.26 0 2.35 1.72 4.25 3.84 4.25 2.13 0 3.85-1.91 3.85-4.25.01-2.35-1.72-4.26-3.85-4.26zm0 7.14c-1.44 0-2.6-1.29-2.6-2.88 0-1.59 1.16-2.87 2.6-2.87 1.44 0 2.6 1.28 2.6 2.87s-1.16 2.88-2.6 2.88z"/>
  </g>
</svg>
