<?xml version="1.0" encoding="utf-8"?><svg id="Layer_3" xmlns="http://www.w3.org/2000/svg" width="83.5" height="50.5"><path fill="none" stroke="#FFF" stroke-width="3" stroke-miterlimit="10" d="M3.25,6.75c7.6,0,7.6,8,15.19,8 c7.6,0,7.6-8,15.2-8s7.6,8,15.2,8c7.6,0,7.6-8,15.2-8c7.6,0,7.6,8,15.2,8" id="path3"/><path fill="none" stroke="#FFF" stroke-width="3" stroke-miterlimit="10" d="M3.25,20.75c7.6,0,7.6,8,15.19,8 c7.6,0,7.6-8,15.2-8s7.6,8,15.2,8c7.6,0,7.6-8,15.2-8c7.6,0,7.6,8,15.2,8" id="path2"/><path fill="none" stroke="#FFF" stroke-width="3" stroke-miterlimit="10" d="M3.25,34.75c7.6,0,7.6,8,15.19,8 c7.6,0,7.6-8,15.2-8s7.6,8,15.2,8c7.6,0,7.6-8,15.2-8c7.6,0,7.6,8,15.2,8" id="path1"/></svg>