<svg xmlns="http://www.w3.org/2000/svg" width="216.3" height="31.3"><path fill="#FFF" d="M-2.7 16.5c7.3 7.9 16.4 15.4 27.4 10.2 10.6-5 17.1-16.7 29.6-17.8 11.9-1.1 20.2 13 30.2 17.3 8.5 3.7 16.6-2 23.2-6.9 7.1-5.3 14.1-10.6 23.5-9.3 12.2 1.7 19 14.6 30.4 18.3 10.7 3.4 18.9-12.1 26.4-17.1 10.8-7.3 22 2.8 30.1 9.5-.8-.7.8-4.3 0-5C209.9 9 200 0 189 5.5c-9.4 4.7-14.2 18.9-26.1 18.1-5.6-.4-10.7-5.4-14.7-8.8-4.8-3.9-9.6-7.7-15.6-9.5-9.5-2.8-17.9 3.7-24.9 9-6.6 4.9-13.6 9.7-22.1 7.3C74.1 18.4 68.2 5.4 55.8 4 44.2 2.7 34.9 15.6 26 21c-11.1 6.7-21.2-1.4-28.7-9.5.8.9-.9 4.1 0 5z"/></svg>