<svg xmlns="http://www.w3.org/2000/svg" width="216.3" height="31.3"><path fill="#FFF" d="M.4 16.6c6.3 7 13 13.3 23.1 10.3 11.2-3.4 17.6-15.3 29.1-18.5 12.3-3.4 21.8 12.3 32 16.7 7.1 3 14.1.3 20.1-3.7 6.9-4.5 12.9-10.8 21.2-12.5 12.9-2.5 22.4 11.7 32.5 17.1 9.9 5.2 17.6-3.3 23.8-10 4.3-4.5 9-8.6 15.6-8.5 6.8.1 13 6.1 17.8 10.1 1.5 1.2 3.6-.9 2.1-2.1-7-6-14.7-12.5-24.6-10.6-11.1 2.2-15.3 15.4-25.4 19.3-6.8 2.6-14.3-5.2-19-9-3.7-3-7.7-6.2-12.2-7.9-8.6-3.2-16.1-.8-23.4 4.2-6.6 4.5-13 11.3-21.5 11.9-11.3.7-19.6-12.9-29.3-17.1-10-4.3-19.5 2.8-26.8 9-4.9 4.1-10 8.7-16.7 9.5C12 25.6 6.6 19 2.5 14.5 1.2 13-.9 15.1.4 16.6z"/></svg>